<svg width="26" height="26" viewBox="0 0 26 26" fill="none" xmlns="http://www.w3.org/2000/svg">
<circle cx="13" cy="13" r="13" fill="#3D86C6"/>
<path d="M20.3659 13.4355C20.3659 13.7499 20.3736 14.0366 20.3594 14.3227C20.3564 14.3788 20.2824 14.4556 20.2226 14.4805C19.917 14.6087 19.6014 14.7151 19.2982 14.8481C19.22 14.8824 19.149 14.9752 19.1134 15.0579C18.8908 15.5698 18.6752 16.0846 18.4685 16.6029C18.4354 16.6863 18.4259 16.8033 18.4573 16.8843C18.5781 17.1922 18.7256 17.4901 18.8511 17.7968C18.8754 17.8565 18.8742 17.9665 18.8357 18.0061C18.4004 18.4565 17.9551 18.8974 17.5122 19.3413C17.1575 19.1846 16.8181 19.041 16.4848 18.8838C16.3669 18.8282 16.281 18.8389 16.1596 18.8921C15.6557 19.1155 15.1405 19.3129 14.6348 19.5316C14.5466 19.5694 14.4512 19.6492 14.4139 19.7337C14.2824 20.0292 14.1711 20.3342 14.0604 20.6386C14.0189 20.7521 13.9591 20.7964 13.8342 20.7952C13.2805 20.7887 12.7262 20.7875 12.1719 20.7952C12.0345 20.797 11.9783 20.742 11.9351 20.6226C11.8279 20.3248 11.7183 20.0275 11.5892 19.7384C11.5513 19.6533 11.4589 19.5706 11.3713 19.5328C10.8591 19.3105 10.3427 19.0977 9.82335 18.8921C9.74044 18.8595 9.62497 18.8495 9.54502 18.8814C9.2365 19.0026 8.93389 19.1403 8.63425 19.2816C8.53003 19.3306 8.46607 19.3152 8.38672 19.2343C7.99411 18.8341 7.59794 18.4364 7.19526 18.0463C7.10288 17.9564 7.09992 17.8855 7.15085 17.7773C7.28882 17.4842 7.42443 17.1892 7.54287 16.8884C7.57485 16.8068 7.56774 16.6904 7.53458 16.6071C7.32554 16.0816 7.10762 15.5603 6.88378 15.0408C6.85061 14.9639 6.78192 14.8788 6.70849 14.8475C6.40411 14.7169 6.09263 14.5999 5.78055 14.4893C5.67277 14.4509 5.63013 14.3989 5.63369 14.2831C5.64139 14.0183 5.63606 13.7529 5.63606 13.4574C5.7083 13.4497 5.77581 13.4367 5.84332 13.4361C6.9957 13.4349 8.14808 13.4379 9.30045 13.432C9.46508 13.4314 9.52666 13.468 9.53851 13.6477C9.65221 15.4415 11.0894 16.8435 12.866 16.9061C14.6608 16.97 16.2082 15.6697 16.4504 13.8942C16.4516 13.8871 16.4522 13.8794 16.4528 13.8723C16.4879 13.5803 16.6506 13.4343 16.9407 13.4343C17.9895 13.4343 19.0388 13.4343 20.0876 13.4343C20.1746 13.4343 20.2611 13.4343 20.3653 13.4343L20.3659 13.4355Z" fill="white"/>
<path d="M19.4898 4.1472C19.4092 3.85995 19.3405 3.62767 19.2789 3.39421C19.2203 3.17256 19.3103 2.98698 19.4975 2.92964C19.7035 2.8664 19.8889 2.96688 19.9564 3.1968C20.1352 3.8044 20.3105 4.41258 20.4781 5.02373C20.5533 5.29797 20.4041 5.48475 20.1133 5.49716C19.501 5.52376 18.8881 5.5474 18.2752 5.56927C18.0123 5.57872 17.8471 5.45106 17.834 5.23887C17.8204 5.01723 17.975 4.87892 18.2539 4.86533C18.5464 4.85114 18.8389 4.83755 19.199 4.82041C18.9603 4.65432 18.775 4.5172 18.5814 4.3919C12.7111 0.595003 4.75459 3.69387 3.04083 10.4578C2.37108 13.101 2.70921 15.6336 4.02266 18.0303C4.05108 18.0818 4.08247 18.132 4.10675 18.1858C4.1938 18.3802 4.13695 18.5753 3.96996 18.6651C3.79941 18.7567 3.59274 18.7089 3.49385 18.5221C3.27 18.0995 3.03905 17.6775 2.85429 17.2371C0.7189 12.1465 2.70033 6.20346 7.53309 3.51774C11.5019 1.31135 15.447 1.54423 19.2635 3.99708C19.3245 4.03668 19.3849 4.07746 19.4898 4.1472Z" fill="white"/>
<path d="M6.52611 21.9299C6.59185 22.1658 6.65876 22.3975 6.72094 22.6303C6.7843 22.8667 6.69548 23.0535 6.49769 23.1097C6.29102 23.1682 6.11277 23.0659 6.04467 22.8325C5.8688 22.232 5.69588 21.6303 5.52889 21.0274C5.44894 20.7384 5.59284 20.5504 5.89426 20.5374C6.50716 20.5114 7.11948 20.4872 7.73238 20.4659C7.99353 20.457 8.15816 20.5889 8.16763 20.8028C8.17711 21.0185 8.02729 21.1557 7.76377 21.1693C7.46886 21.1846 7.17337 21.197 6.84056 21.2124C6.898 21.265 6.93176 21.304 6.97321 21.3336C9.01089 22.7846 11.2819 23.4732 13.7744 23.2415C17.7947 22.8673 20.7188 20.8265 22.3876 17.1643C23.7786 14.1104 23.582 11.0458 22.0169 8.07399C21.9825 8.00898 21.9435 7.94633 21.9103 7.88013C21.8073 7.67326 21.8523 7.47644 22.0228 7.37715C22.2052 7.27135 22.4065 7.33104 22.5274 7.53969C23.0485 8.43749 23.4328 9.39144 23.6803 10.3992C25.1809 16.5077 21.234 22.6504 15.0375 23.7994C12.0286 24.3574 9.24362 23.7427 6.71206 22.0156C6.66942 21.9867 6.62679 21.9571 6.58296 21.9305C6.57349 21.9246 6.55691 21.9299 6.52611 21.9299Z" fill="white"/>
<path d="M13.0001 12.2197C12.2326 12.2197 11.4652 12.2208 10.6971 12.2197C10.2399 12.2191 10.0564 11.9537 10.2115 11.5216C10.6272 10.3632 11.7618 9.56999 13.003 9.57117C14.2549 9.57176 15.3877 10.372 15.7987 11.5459C15.9402 11.9513 15.7549 12.2185 15.325 12.2197C14.5498 12.222 13.7752 12.2202 13.0001 12.2202V12.2197Z" fill="white"/>
<path d="M9.38624 11.6049C8.67918 11.6049 7.93422 11.6049 7.18867 11.6049C6.88606 11.6049 6.58287 11.6061 6.28027 11.6049C5.83258 11.602 5.64545 11.313 5.81896 10.8963C6.53609 9.17631 8.87637 8.84237 10.04 10.2745C9.82386 10.7142 9.61186 11.1463 9.38624 11.6049Z" fill="white"/>
<path d="M16.6157 11.6049C16.3913 11.1463 16.1846 10.7254 15.9614 10.2692C16.351 9.79099 16.8905 9.48897 17.5425 9.39794C18.6392 9.24486 19.7104 9.84419 20.1623 10.8484C20.3713 11.3124 20.1871 11.6043 19.6844 11.6043C18.651 11.6049 17.6171 11.6043 16.6157 11.6043V11.6049Z" fill="white"/>
<path d="M12.9887 9.12607C12.1674 9.12252 11.4964 8.44932 11.4976 7.62835C11.4982 6.80975 12.1727 6.133 12.9911 6.12886C13.8207 6.12473 14.5041 6.80266 14.5053 7.63131C14.5065 8.45996 13.8272 9.12962 12.9887 9.12607Z" fill="white"/>
<path d="M11.073 13.4496H14.9292C14.9967 14.4532 14.0623 15.3687 12.9899 15.3646C11.9328 15.361 11.0031 14.4396 11.073 13.4496Z" fill="white"/>
<path d="M17.8781 6.40729C18.5828 6.40847 19.1471 6.97233 19.1453 7.67332C19.1436 8.36662 18.5603 8.9423 17.8674 8.93461C17.1698 8.92634 16.6031 8.34711 16.6114 7.65145C16.6203 6.96051 17.1846 6.40552 17.8775 6.40729H17.8781Z" fill="white"/>
<path d="M8.14416 6.40727C8.85003 6.42086 9.40786 6.99713 9.38951 7.69398C9.37174 8.38432 8.79851 8.94109 8.11395 8.934C7.41696 8.92691 6.84788 8.34709 6.85617 7.65201C6.86446 6.9534 7.44361 6.39308 8.14416 6.40668V6.40727Z" fill="white"/>
</svg>
