<svg width="26" height="26" viewBox="0 0 26 26" fill="none" xmlns="http://www.w3.org/2000/svg">
<circle cx="13" cy="13" r="13" fill="#3D86C6"/>
<path d="M7.68187 17.7991C7.68187 17.7213 7.68187 17.6663 7.68187 17.6124C7.68187 14.3325 7.68187 11.0527 7.68187 7.77401C7.68187 6.97559 8.1004 6.3687 8.8136 6.15204C8.98919 6.09937 9.18042 6.07543 9.36444 6.07543C11.8733 6.07064 14.3833 6.07183 16.8921 6.07303C16.9402 6.07303 16.9871 6.07782 17.0533 6.08141C17.034 6.12809 17.0244 6.16281 17.0076 6.19393C16.8404 6.52311 16.7778 6.87145 16.7778 7.23894C16.7802 11.0874 16.7802 14.9347 16.779 18.7831C16.779 19.3373 16.4844 19.7431 15.9901 19.8748C15.3166 20.0556 14.6575 19.5648 14.6395 18.8705C14.6226 18.2409 14.1704 17.8003 13.5306 17.7991C11.6532 17.798 9.77455 17.7991 7.89715 17.7991H7.68066H7.68187ZM11.9755 15.1381C12.667 15.1381 13.3586 15.1381 14.0489 15.1381C14.3027 15.1381 14.4999 15.0448 14.6022 14.8054C14.7537 14.4451 14.4855 14.0692 14.0718 14.0656C13.474 14.0608 12.8751 14.0644 12.2774 14.0644C11.4824 14.0644 10.6862 14.0644 9.89122 14.0644C9.59054 14.0644 9.36684 14.2224 9.30671 14.4702C9.21891 14.8281 9.47268 15.1346 9.86957 15.137C10.5719 15.1405 11.2743 15.137 11.9767 15.137L11.9755 15.1381ZM11.9755 12.464C12.6827 12.464 13.3911 12.4676 14.0982 12.4628C14.4145 12.4604 14.6467 12.2246 14.6419 11.9265C14.637 11.6344 14.4061 11.4058 14.0982 11.4046C12.6779 11.4022 11.2563 11.401 9.83589 11.4082C9.72765 11.4082 9.60738 11.4525 9.51597 11.5111C9.31633 11.6404 9.24657 11.8846 9.31994 12.1049C9.3933 12.3239 9.58333 12.4616 9.83589 12.4628C10.5491 12.4664 11.2623 12.4628 11.9755 12.4628V12.464ZM12.008 9.2715C12.3591 9.2715 12.7091 9.2727 13.0603 9.2715C13.385 9.2715 13.6232 9.04406 13.6232 8.73762C13.6232 8.43717 13.3911 8.20375 13.0759 8.20255C12.3688 8.19896 11.6628 8.20016 10.9556 8.20494C10.6381 8.20734 10.406 8.44076 10.4072 8.73762C10.4072 9.04167 10.6477 9.2691 10.9724 9.2703C11.3176 9.2727 11.6628 9.2703 12.008 9.2703V9.2715Z" fill="white"/>
<path d="M5.00848 18.8777H13.5596C13.6607 20.0197 14.2728 20.7151 15.3745 20.9988H14.9716C12.2174 20.9988 9.46206 20.9988 6.70789 20.9988C5.98627 20.9988 5.45227 20.6996 5.14078 20.04C4.96759 19.6713 4.99886 19.2775 5.00848 18.8777Z" fill="white"/>
<path d="M19.9891 12.9991H17.8579C17.8579 12.9236 17.8579 12.8542 17.8579 12.786C17.8579 10.8911 17.8579 8.99499 17.8579 7.10009C17.8579 6.48242 18.3234 6.00361 18.9235 6.00002C19.5224 5.99643 19.9987 6.47524 19.9999 7.09171C20.0011 9.00936 19.9999 10.9258 19.9999 12.8434C19.9999 12.8913 19.9939 12.9392 19.9903 12.9991H19.9891Z" fill="white"/>
</svg>
