<svg width="54" height="54" viewBox="0 0 54 54" fill="none" xmlns="http://www.w3.org/2000/svg">
<circle cx="27" cy="27" r="27" fill="#3D86C6"/>
<path d="M16.2857 37H36.8572C37.5643 37 38.1429 36.4214 38.1429 35.7143C38.1429 35.0072 37.5643 34.4286 36.8572 34.4286H16.2857C15.576 34.4286 15 35.0072 15 35.7143C15 36.4214 15.576 37 16.2857 37Z" fill="white"/>
<path d="M16.2857 29.2857H36.8572C37.5643 29.2857 38.1429 28.7072 38.1429 28C38.1429 27.2903 37.5643 26.7143 36.8572 26.7143H16.2857C15.576 26.7143 15 27.2903 15 28C15 28.7072 15.576 29.2857 16.2857 29.2857Z" fill="white"/>
<path d="M16.2857 21.5714H36.8572C37.5643 21.5714 38.1429 20.9954 38.1429 20.2857C38.1429 19.576 37.5643 19 36.8572 19H16.2857C15.576 19 15 19.576 15 20.2857C15 20.9954 15.576 21.5714 16.2857 21.5714Z" fill="white"/>
</svg>
