<svg width="9" height="9" viewBox="0 0 9 9" fill="none" xmlns="http://www.w3.org/2000/svg">
<path d="M4.49993 0C2.01471 0 0 2.01477 0 4.49993C0 6.98508 2.01471 9 4.49993 9C6.98514 9 9 6.98508 9 4.49993C9 2.01477 6.98514 0 4.49993 0ZM6.44537 5.35581H4.53758C4.53113 5.35581 4.52513 5.35425 4.51874 5.35401C4.51235 5.35431 4.50638 5.35581 4.4999 5.35581C4.32802 5.35581 4.18867 5.21646 4.18867 5.04458V1.8675C4.18867 1.69563 4.32802 1.55628 4.4999 1.55628C4.67177 1.55628 4.81112 1.69563 4.81112 1.8675V4.73336H6.44525C6.61712 4.73336 6.75647 4.87271 6.75647 5.04458C6.75647 5.21646 6.61724 5.35581 6.44537 5.35581Z" fill="white"/>
</svg>
