<svg xmlns="http://www.w3.org/2000/svg" xmlns:xlink="http://www.w3.org/1999/xlink" width="563.138" height="141.829" viewBox="0 0 563.138 141.829">
  <defs>
    <linearGradient id="linear-gradient" y1="0.5" x2="1" y2="0.5" gradientUnits="objectBoundingBox">
      <stop offset="0" stop-color="#ff5dc8"/>
      <stop offset="0" stop-color="#fd5dc8"/>
      <stop offset="0.06" stop-color="#f95ec8"/>
      <stop offset="0.12" stop-color="#ec60c8"/>
      <stop offset="0.18" stop-color="#d664c8"/>
      <stop offset="0.25" stop-color="#b869c9"/>
      <stop offset="0.31" stop-color="#9170c9"/>
      <stop offset="0.38" stop-color="#6179ca"/>
      <stop offset="0.45" stop-color="#2a83cb"/>
      <stop offset="0.49" stop-color="#018acb"/>
      <stop offset="1" stop-color="#53c0b0"/>
    </linearGradient>
    <linearGradient id="linear-gradient-2" y1="0.5" x2="1" y2="0.5" gradientUnits="objectBoundingBox">
      <stop offset="0" stop-color="#fd5dc8"/>
      <stop offset="0.7" stop-color="#018acb"/>
      <stop offset="1" stop-color="#53c0b0"/>
    </linearGradient>
    <linearGradient id="linear-gradient-3" x1="0.034" y1="0.5" x2="1.061" y2="0.5" gradientUnits="objectBoundingBox">
      <stop offset="0" stop-color="#fd5dc8"/>
      <stop offset="0.61" stop-color="#018acb"/>
      <stop offset="1" stop-color="#53c0b0"/>
    </linearGradient>
  </defs>
  <g id="Group_13" data-name="Group 13" transform="translate(-44 -93)">
    <path id="Union_3" data-name="Union 3" d="M19.012,89.4H18.76C6.128,88.583-.327,75.577.013,63.758A26.7,26.7,0,0,1,5.326,48a19.962,19.962,0,0,1,16.083-7.571l56.947-.642L98.3,11.036a3.973,3.973,0,0,1,.326-.409,7.712,7.712,0,1,1,7.14,4.8,7.755,7.755,0,0,1-.908-.053q-.05.079-.1.157L83.656,45.949a3.921,3.921,0,0,1-3.182,1.69l-58.994.642c-6.37.045-13.282,4.193-13.612,15.694-.321,10.841,5.56,17.116,11.286,17.566H54A3.93,3.93,0,0,1,54,89.4l-.013,0ZM103.554,7.712A2.208,2.208,0,1,0,105.761,5.5,2.21,2.21,0,0,0,103.554,7.712Z" transform="translate(44 108.652)" fill="url(#linear-gradient)"/>
    <path id="Union_2" data-name="Union 2" d="M38.862,118.425a7.671,7.671,0,0,1,.491-2.709q-.121-.147-.229-.307l-20.068-30a3.93,3.93,0,0,1,.054-4.45l34.008-48.2c3.7-5.194,4.38-13.222-4.751-20.212C39.76,5.943,31.232,7.027,27.514,11.4L7.115,39.656a3.931,3.931,0,1,1-6.369-4.61L21.229,6.677l.156-.2C29.445-3.284,43.767-.9,53.147,6.3a26.629,26.629,0,0,1,9.661,13.533A19.952,19.952,0,0,1,59.533,37.3L27.087,83.285l18.408,27.5a7.712,7.712,0,1,1-6.633,7.637Zm5.5,0a2.208,2.208,0,1,0,2.208-2.207A2.211,2.211,0,0,0,44.366,118.425Z" transform="translate(111.159 93)" fill="url(#linear-gradient-2)"/>
    <path id="Union_1" data-name="Union 1" d="M82.423,58.3l-30.6-46.356-37.19.035a3.962,3.962,0,0,1-.467-.041,7.711,7.711,0,1,1,.374-7.812l.092,0,39.309-.036a3.927,3.927,0,0,1,3.278,1.762L89.007,54l.039.06c3.461,5.454,10.866,9.856,20.343,4.309,8.139-4.765,9.227-11.906,6.8-16.6L94.907,9.149a3.928,3.928,0,1,1,6.579-4.292l21.38,32.772c.057.093.116.189.167.285a17.991,17.991,0,0,1,.677,15.862,24.733,24.733,0,0,1-10.35,11.374,25.57,25.57,0,0,1-12.743,3.545C93.941,68.695,87.168,65.753,82.423,58.3ZM5.5,7.712A2.208,2.208,0,1,0,7.712,5.5,2.21,2.21,0,0,0,5.5,7.712Z" transform="translate(57.087 166.135)" fill="url(#linear-gradient-3)"/>
    <g id="Group_12" data-name="Group 12" transform="translate(200.445 100.785)">
      <path id="Path_656" data-name="Path 656" d="M6758.983,172.32a12.821,12.821,0,0,0,9.419-3.728l11.774,6.769c-4.812,6.67-12.069,10.106-21.389,10.106-16.776,0-27.178-11.283-27.178-25.9s10.588-25.9,26.1-25.9c14.324,0,24.92,11.088,24.92,25.9a28.521,28.521,0,0,1-.589,5.887h-34.833C6749.06,170.552,6753.587,172.32,6758.983,172.32Zm9.028-17.857c-1.572-5.691-5.987-7.751-10.4-7.751-5.592,0-9.3,2.746-10.693,7.751Z" transform="translate(-6731.61 -115.411)" fill="#323232"/>
      <path id="Path_657" data-name="Path 657" d="M6907.459,159.564c0-14.62,11.088-25.9,25.987-25.9a25.265,25.265,0,0,1,22.176,12.56l-12.855,7.456c-1.665-3.433-5.2-5.5-9.516-5.5-6.378,0-11.088,4.614-11.088,11.383s4.71,11.383,11.088,11.383c4.318,0,7.947-2.063,9.516-5.5l12.855,7.36a25.049,25.049,0,0,1-22.176,12.657C6918.541,185.467,6907.459,174.193,6907.459,159.564Z" transform="translate(-6851.042 -115.411)" fill="#323232"/>
      <path id="Path_658" data-name="Path 658" d="M7065.26,159.564a26,26,0,1,1,25.987,25.9A25.712,25.712,0,0,1,7065.26,159.564Zm37.284,0c0-6.965-4.905-11.579-11.284-11.579s-11.28,4.613-11.28,11.579,4.905,11.579,11.28,11.579S7102.544,166.529,7102.544,159.564Z" transform="translate(-6958.216 -115.411)" fill="#323232"/>
      <path id="Path_659" data-name="Path 659" d="M7281.136,169.361c0,11.284-9.814,16.093-20.408,16.093-9.813,0-17.27-3.728-21.1-11.678l12.756-7.26c1.283,3.728,4.023,5.775,8.341,5.775,3.529,0,5.3-1.081,5.3-3.041,0-5.4-24.135-2.567-24.135-19.526,0-10.7,9.025-16.093,19.23-16.093,7.947,0,15.012,3.529,19.131,10.5l-12.557,6.77c-1.373-2.567-3.336-4.318-6.574-4.318-2.566,0-4.123.982-4.123,2.746C7256.981,154.923,7281.136,151.2,7281.136,169.361Z" transform="translate(-7076.644 -115.391)" fill="#323232"/>
      <path id="Path_660" data-name="Path 660" d="M7467.019,153.974V184.1H7452.3V155.238c0-4.905-2.354-8.043-7.058-8.043-4.909,0-7.655,3.433-7.655,9.221v27.671H7422.87V155.238c0-4.905-2.355-8.043-7.059-8.043-4.905,0-7.655,3.433-7.655,9.221v27.671H7393.44V135.026h14.716v4.511c2.246-3.337,6.574-5.887,13.154-5.887,5.791,0,10.105,2.355,12.855,6.478,2.746-3.927,7.26-6.478,14.225-6.478C7459.658,133.653,7467.019,141.7,7467.019,153.974Z" transform="translate(-7181.107 -115.405)" fill="#323232"/>
      <path id="Path_661" data-name="Path 661" d="M7646.629,159.564a26,26,0,1,1,26,25.9A25.716,25.716,0,0,1,7646.629,159.564Zm37.287,0c0-6.965-4.905-11.579-11.283-11.579s-11.284,4.613-11.284,11.579,4.906,11.579,11.284,11.579S7683.917,166.529,7683.917,159.564Z" transform="translate(-7353.065 -115.411)" fill="#323232"/>
      <path id="Path_662" data-name="Path 662" d="M7887.506,120.932c0,14.62-10.587,25.9-23.449,25.9-6.574,0-11.384-2.246-14.62-5.987v4.614h-14.716V76.78h14.716v24.235c3.236-3.728,8.047-5.987,14.62-5.987C7876.91,95.029,7887.506,106.312,7887.506,120.932Zm-14.717,0c0-7.36-4.908-11.97-11.678-11.97s-11.675,4.61-11.675,11.97,4.905,11.97,11.675,11.97S7872.79,128.292,7872.79,120.932Z" transform="translate(-7480.813 -76.78)" fill="#323232"/>
      <path id="Path_702" data-name="Path 702" d="M19.945-14.668A6.017,6.017,0,0,0,14.43-11.3a5.224,5.224,0,0,0-5.152-3.369,5.766,5.766,0,0,0-5.317,3.2V-14.3H2.31V2.208H3.961V-7.006c0-4.227,2.411-6.077,5.119-6.077,2.543,0,4.227,1.684,4.227,4.822V2.208h1.651V-7.006c0-4.227,2.18-6.077,4.954-6.077,2.576,0,4.392,1.684,4.392,4.822V2.208h1.651V-8.261C25.956-12.389,23.446-14.668,19.945-14.668Zm25.2.363v3.732a7.939,7.939,0,0,0-7.1-4.1,8.528,8.528,0,0,0-8.553,8.62,8.528,8.528,0,0,0,8.553,8.62,7.939,7.939,0,0,0,7.1-4.1V2.208h1.684V-14.3ZM38.175.986a6.95,6.95,0,0,1-7-7.034,6.95,6.95,0,0,1,7-7.034,6.922,6.922,0,0,1,6.968,7.034A6.922,6.922,0,0,1,38.175.986ZM64.562,2.208,55.348-6.378,64.232-14.3H61.92l-8.355,7.5v-14.1H51.914V2.208h1.651V-5.916l8.752,8.124Zm7.431-16.876a8.329,8.329,0,0,0-8.553,8.62,8.343,8.343,0,0,0,8.686,8.62,8.137,8.137,0,0,0,7.2-3.732l-1.453-.859A6.283,6.283,0,0,1,72.158.986a6.722,6.722,0,0,1-7-6.176h14.96c0-.264.033-.528.033-.793C80.15-10.506,77.012-14.668,71.993-14.668Zm0,1.585c3.236,0,6.077,2.246,6.44,6.275H65.157A6.656,6.656,0,0,1,71.993-13.082Zm11.823,3.1c0-1.981,1.816-3.1,3.963-3.1a4.314,4.314,0,0,1,4.227,2.51l1.387-.793a5.835,5.835,0,0,0-5.614-3.3c-3.369,0-5.614,2.081-5.614,4.69,0,5.944,10.007,3.369,10.007,7.86,0,2.081-1.948,3.1-4.26,3.1-2.477,0-4.26-1.123-4.855-2.906l-1.42.826c.793,2.114,2.972,3.666,6.275,3.666,3.534,0,5.911-1.981,5.911-4.69C93.822-8.162,83.816-5.553,83.816-9.978ZM118.723-14.3,112.977.392l-6.671-14.7h-1.783l7.6,16.81-.363.892c-1.024,2.411-2.708,4.062-4.921,3.864V8.813c2.84.231,5.284-1.915,6.539-5.086L120.506-14.3Zm11,16.876a8.55,8.55,0,0,0,8.653-8.62,8.55,8.55,0,0,0-8.653-8.62,8.557,8.557,0,0,0-8.686,8.62A8.557,8.557,0,0,0,129.72,2.572Zm0-1.585a6.95,6.95,0,0,1-7-7.034,6.95,6.95,0,0,1,7-7.034,6.922,6.922,0,0,1,6.968,7.034A6.922,6.922,0,0,1,129.72.986Zm24.5-15.291v8.719c0,4.458-2.543,6.572-5.779,6.572-3.1,0-4.855-1.981-4.855-5.02V-14.3h-1.684V-4.033c0,4,2.477,6.6,6.407,6.6a6.219,6.219,0,0,0,5.911-3.5V2.208h1.651V-14.3Zm8.388,3.236V-14.3h-1.651V2.208h1.651V-6.973c0-4.227,2.675-5.978,5.515-5.978v-1.585A5.557,5.557,0,0,0,162.613-11.068ZM192.4-14.3,186.16.491l-6.209-14.8h-1.783l7,16.512h2.015L194.152-14.3Zm5.581-4a1.325,1.325,0,0,0,1.321-1.321,1.318,1.318,0,0,0-1.321-1.288,1.318,1.318,0,0,0-1.321,1.288A1.325,1.325,0,0,0,197.983-18.3Zm-.826,20.509h1.651V-14.3h-1.651Zm7.86-12.186c0-1.981,1.816-3.1,3.963-3.1a4.314,4.314,0,0,1,4.227,2.51l1.387-.793a5.835,5.835,0,0,0-5.614-3.3c-3.369,0-5.614,2.081-5.614,4.69,0,5.944,10.007,3.369,10.007,7.86,0,2.081-1.948,3.1-4.26,3.1-2.477,0-4.26-1.123-4.855-2.906l-1.42.826c.793,2.114,2.972,3.666,6.275,3.666,3.534,0,5.911-1.981,5.911-4.69C215.024-8.162,205.017-5.553,205.017-9.978ZM219.68-18.3A1.325,1.325,0,0,0,221-19.621a1.318,1.318,0,0,0-1.321-1.288,1.318,1.318,0,0,0-1.321,1.288A1.325,1.325,0,0,0,219.68-18.3Zm-.826,20.509h1.651V-14.3h-1.651Zm14.3.363a8.55,8.55,0,0,0,8.653-8.62,8.55,8.55,0,0,0-8.653-8.62,8.557,8.557,0,0,0-8.686,8.62A8.557,8.557,0,0,0,233.155,2.572Zm0-1.585a6.95,6.95,0,0,1-7-7.034,6.95,6.95,0,0,1,7-7.034,6.922,6.922,0,0,1,6.968,7.034A6.922,6.922,0,0,1,233.155.986Zm20.178-15.654a6.219,6.219,0,0,0-5.911,3.5V-14.3H245.77V2.208h1.651V-6.51c0-4.458,2.543-6.572,5.779-6.572,3.1,0,4.855,1.981,4.855,5.02V2.208h1.684V-8.063C259.74-12.059,257.263-14.668,253.333-14.668Zm34.412.363v3.732a7.939,7.939,0,0,0-7.1-4.1,8.528,8.528,0,0,0-8.553,8.62,8.528,8.528,0,0,0,8.553,8.62,7.939,7.939,0,0,0,7.1-4.1V2.208h1.684V-14.3ZM280.777.986a6.95,6.95,0,0,1-7-7.034,6.95,6.95,0,0,1,7-7.034,6.922,6.922,0,0,1,6.968,7.034A6.922,6.922,0,0,1,280.777.986Zm24.207-12.054V-14.3h-1.651V2.208h1.651V-6.973c0-4.227,2.675-5.978,5.515-5.978v-1.585A5.557,5.557,0,0,0,304.984-11.068Zm14.3-3.6a8.329,8.329,0,0,0-8.553,8.62,8.343,8.343,0,0,0,8.686,8.62,8.137,8.137,0,0,0,7.2-3.732l-1.453-.859A6.283,6.283,0,0,1,319.449.986a6.722,6.722,0,0,1-7-6.176h14.96c0-.264.033-.528.033-.793C327.441-10.506,324.3-14.668,319.284-14.668Zm0,1.585c3.236,0,6.077,2.246,6.44,6.275H312.448A6.656,6.656,0,0,1,319.284-13.082ZM345.836-14.3v3.732a7.939,7.939,0,0,0-7.1-4.1,8.528,8.528,0,0,0-8.553,8.62,8.528,8.528,0,0,0,8.553,8.62,7.939,7.939,0,0,0,7.1-4.1V2.208h1.684V-14.3ZM338.867.986a6.95,6.95,0,0,1-7-7.034,6.95,6.95,0,0,1,7-7.034,6.922,6.922,0,0,1,6.968,7.034A6.922,6.922,0,0,1,338.867.986Zm13.738,1.222h1.651V-21.9h-1.651ZM360.169-18.3a1.325,1.325,0,0,0,1.321-1.321,1.318,1.318,0,0,0-1.321-1.288,1.318,1.318,0,0,0-1.321,1.288A1.325,1.325,0,0,0,360.169-18.3Zm-.826,20.509h1.651V-14.3h-1.651Zm15.191-14.894V-14.3h-4.921v-4.623l-1.684.5V-14.3H364.3v1.618h3.633V-1.953c0,3.765,2.279,4.822,6.6,4.161V.722c-3.369.3-4.921.231-4.921-2.675V-12.686ZM391.245-14.3,385.5.392l-6.671-14.7h-1.783l7.6,16.81-.363.892c-1.024,2.411-2.708,4.062-4.921,3.864V8.813c2.84.231,5.284-1.915,6.539-5.086L393.028-14.3Z" transform="translate(4.288 106.829)" fill="#424242"/>
    </g>
  </g>
</svg>
