<svg width="18" height="16" viewBox="0 0 18 16" fill="none" xmlns="http://www.w3.org/2000/svg">
<path d="M12.375 9.03487V13.5H2.25V3.375H5.625V1.125H1.125C0.504 1.125 0 1.629 0 2.25V14.625C0 15.2471 0.504 15.75 1.125 15.75H13.5C14.1221 15.75 14.625 15.2471 14.625 14.625V9.03487H12.375Z" fill="#46BF3C"/>
<path d="M17.775 3.48763L13.275 0.112626C13.1062 -0.0156245 12.8768 -0.0358744 12.6866 0.0597506C12.4954 0.155376 12.375 0.350001 12.375 0.562626V2.25013H10.6875C7.27537 2.25013 4.5 5.0255 4.5 8.43763C4.5 8.69863 4.68 8.92588 4.93313 8.9855C4.97588 8.99563 5.01975 9.00013 5.0625 9.00013C5.27175 9.00013 5.46863 8.88313 5.56538 8.68963L5.69813 8.42525C6.561 6.69838 8.29575 5.62513 10.2263 5.62513H12.375V7.31263C12.375 7.52525 12.4954 7.71988 12.6855 7.8155C12.8756 7.91113 13.1051 7.89088 13.275 7.76263L17.775 4.38763C17.9167 4.28188 18 4.11425 18 3.93763C18 3.761 17.9167 3.59338 17.775 3.48763Z" fill="#46BF3C"/>
</svg>
