<svg width="15" height="13" viewBox="0 0 15 13" fill="none" xmlns="http://www.w3.org/2000/svg">
<path d="M13.7133 1.26005H5.68145C5.46063 0.604207 4.8403 0.130371 4.11095 0.130371C3.3816 0.130371 2.76127 0.604207 2.54045 1.26005H1.28674C0.995509 1.26005 0.759399 1.49616 0.759399 1.78739C0.759399 2.07863 0.995509 2.31473 1.28674 2.31473H2.54049C2.7613 2.97057 3.38163 3.44441 4.11099 3.44441C4.84034 3.44441 5.46067 2.97057 5.68148 2.31473H13.7133C14.0046 2.31473 14.2407 2.07863 14.2407 1.78739C14.2407 1.49616 14.0046 1.26005 13.7133 1.26005ZM4.11095 2.38972C3.77883 2.38972 3.50862 2.11951 3.50862 1.78739C3.50862 1.45527 3.77883 1.18506 4.11095 1.18506C4.44307 1.18506 4.71328 1.45527 4.71328 1.78739C4.71328 2.11951 4.44307 2.38972 4.11095 2.38972Z" fill="#1C84EE"/>
<path d="M13.7133 5.7786H12.4595C12.2387 5.12276 11.6184 4.64893 10.889 4.64893C10.1597 4.64893 9.53939 5.12276 9.31857 5.7786H1.28674C0.995509 5.7786 0.759399 6.01471 0.759399 6.30595C0.759399 6.59718 0.995509 6.83329 1.28674 6.83329H9.31857C9.53939 7.48913 10.1598 7.96296 10.8891 7.96296C11.6184 7.96296 12.2388 7.48913 12.4596 6.83329H13.7133C14.0046 6.83329 14.2407 6.59718 14.2407 6.30595C14.2407 6.01471 14.0046 5.7786 13.7133 5.7786ZM10.8891 6.90828C10.557 6.90828 10.2867 6.63807 10.2867 6.30595C10.2867 5.97382 10.557 5.70361 10.8891 5.70361C11.2212 5.70361 11.4914 5.97382 11.4914 6.30595C11.4914 6.63807 11.2212 6.90828 10.8891 6.90828Z" fill="#1C84EE"/>
<path d="M13.7133 10.2976H7.94084C7.72002 9.6418 7.09969 9.16797 6.37034 9.16797C5.64099 9.16797 5.02065 9.6418 4.79984 10.2976H1.28674C0.995509 10.2976 0.759399 10.5338 0.759399 10.825C0.759399 11.1162 0.995509 11.3523 1.28674 11.3523H4.79984C5.02065 12.0082 5.64099 12.482 6.37034 12.482C7.09969 12.482 7.72002 12.0082 7.94084 11.3523H13.7133C14.0046 11.3523 14.2407 11.1162 14.2407 10.825C14.2407 10.5338 14.0046 10.2976 13.7133 10.2976ZM6.37034 11.4274C6.03822 11.4274 5.768 11.1571 5.768 10.825C5.768 10.4929 6.03822 10.2227 6.37034 10.2227C6.70246 10.2227 6.97267 10.4929 6.97267 10.825C6.97267 11.1571 6.70246 11.4274 6.37034 11.4274Z" fill="#1C84EE"/>
</svg>
