<svg xmlns="http://www.w3.org/2000/svg" xmlns:xlink="http://www.w3.org/1999/xlink" width="643.017" height="400.984" viewBox="0 0 643.017 400.984">
  <defs>
    <clipPath id="clip-path">
      <rect id="Rectangle_16" data-name="Rectangle 16" width="459.273" height="332.684" fill="none"/>
    </clipPath>
  </defs>
  <g id="OBJECTS" transform="translate(-55.126 -35.304)">
    <g id="Group_31" data-name="Group 31" transform="translate(56.11 35.304)">
      <g id="Group_19" data-name="Group 19" transform="translate(0 91.035)">
        <g id="Group_3" data-name="Group 3" transform="translate(69.867)">
          <g id="Group_2" data-name="Group 2">
            <line id="Line_1" data-name="Line 1" x2="499.369" transform="translate(0 32.735)" fill="none" stroke="#ded8d5" stroke-width="1.968"/>
            <rect id="Rectangle_2" data-name="Rectangle 2" width="499.369" height="308.965" rx="6.521" fill="none" stroke="#ded8d5" stroke-width="1.968"/>
            <g id="Group_1" data-name="Group 1" transform="translate(23.774 12.134)">
              <path id="Path_1" data-name="Path 1" d="M158.887,142.644a4.568,4.568,0,1,1-4.568-4.567A4.568,4.568,0,0,1,158.887,142.644Z" transform="translate(-149.751 -138.077)" fill="#ffb1a5"/>
              <path id="Path_2" data-name="Path 2" d="M176.639,142.644a4.568,4.568,0,1,1-4.567-4.567A4.568,4.568,0,0,1,176.639,142.644Z" transform="translate(-149.751 -138.077)" fill="#ead254"/>
              <path id="Path_3" data-name="Path 3" d="M194.392,142.644a4.568,4.568,0,1,1-4.568-4.567A4.568,4.568,0,0,1,194.392,142.644Z" transform="translate(-149.751 -138.077)" fill="#00857b"/>
            </g>
          </g>
        </g>
        <g id="Group_12" data-name="Group 12" transform="translate(510.755 22.47)">
          <g id="Group_6" data-name="Group 6">
            <g id="Group_5" data-name="Group 5">
              <g id="Group_4" data-name="Group 4">
                <rect id="Rectangle_3" data-name="Rectangle 3" width="129.344" height="120.523" rx="5.991" fill="#ededed"/>
                <rect id="Rectangle_4" data-name="Rectangle 4" width="129.344" height="120.523" rx="5.991" fill="none" stroke="#ded8d5" stroke-width="1.968"/>
              </g>
            </g>
          </g>
          <g id="Group_11" data-name="Group 11" transform="translate(28.343 27.137)">
            <g id="Group_9" data-name="Group 9">
              <g id="Group_8" data-name="Group 8">
                <g id="Group_7" data-name="Group 7">
                  <rect id="Rectangle_5" data-name="Rectangle 5" width="73.042" height="62.034" rx="6.022" transform="translate(73.042 62.034) rotate(180)" fill="#c98bd2"/>
                </g>
              </g>
            </g>
            <g id="Group_10" data-name="Group 10" transform="translate(19.475 18.726)">
              <path id="Path_4" data-name="Path 4" d="M648.391,216.882H614.683V194.276h33.708v22.606Z" transform="translate(-614.683 -194.276)" fill="none" stroke="#fff" stroke-linecap="round" stroke-linejoin="round" stroke-width="1.647"/>
              <path id="Path_5" data-name="Path 5" d="M614.683,194.276l16.854,13.282,16.854-13.282" transform="translate(-614.683 -194.276)" fill="none" stroke="#fff" stroke-linecap="round" stroke-linejoin="round" stroke-width="1.647"/>
            </g>
          </g>
        </g>
        <g id="Group_18" data-name="Group 18" transform="translate(0 124.871)">
          <g id="Group_15" data-name="Group 15">
            <g id="Group_14" data-name="Group 14">
              <g id="Group_13" data-name="Group 13">
                <rect id="Rectangle_6" data-name="Rectangle 6" width="123.353" height="109.011" rx="5.713" fill="#ededed"/>
                <rect id="Rectangle_7" data-name="Rectangle 7" width="123.353" height="109.011" rx="5.713" fill="none" stroke="#ded8d5" stroke-width="1.968"/>
              </g>
            </g>
          </g>
          <g id="Group_17" data-name="Group 17" transform="translate(25.722 18.67)">
            <rect id="Rectangle_8" data-name="Rectangle 8" width="71.328" height="69.339" rx="6.639" fill="#ffb1a5"/>
            <g id="Group_16" data-name="Group 16" transform="translate(15.965 15.183)">
              <path id="Path_6" data-name="Path 6" d="M103.671,290.541a20.167,20.167,0,1,0,28.52,0A20.247,20.247,0,0,0,103.671,290.541Zm28.474,2.9h-6.427a40.89,40.89,0,0,0-2.5-6.056A18.217,18.217,0,0,1,132.145,293.445Zm-21.619,10.177a32.63,32.63,0,0,1,.955-7.819h12.9a32.579,32.579,0,0,1,.955,7.819Zm14.731,2.358a38.422,38.422,0,0,1-1.385,7.819H111.991a38.344,38.344,0,0,1-1.386-7.819Zm-7.326-19.372a18.318,18.318,0,0,1,2.849.221,37.055,37.055,0,0,1,2.924,6.616H112.158a37.055,37.055,0,0,1,2.924-6.616A18.328,18.328,0,0,1,117.931,286.608Zm-5.288.781a40.776,40.776,0,0,0-2.5,6.056h-6.427A18.2,18.2,0,0,1,112.643,287.389ZM102.115,295.8h7.361a35.088,35.088,0,0,0-1.031,7.819H99.776A18.1,18.1,0,0,1,102.115,295.8Zm0,18a18.08,18.08,0,0,1-2.339-7.819h8.705a37.993,37.993,0,0,0,1.228,7.819Zm1.6,2.358H110.4a48.927,48.927,0,0,0,2.486,6.13A18.2,18.2,0,0,1,103.718,316.157Zm14.213,6.838a18.369,18.369,0,0,1-2.383-.155,54.283,54.283,0,0,1-2.82-6.683h10.407a54.593,54.593,0,0,1-2.82,6.683A18.4,18.4,0,0,1,117.931,322.995Zm5.041-.708a48.859,48.859,0,0,0,2.485-6.13h6.688A18.2,18.2,0,0,1,122.972,322.287Zm10.775-8.488h-7.594a37.837,37.837,0,0,0,1.228-7.819h8.705A18.085,18.085,0,0,1,133.747,313.8Zm2.339-10.177h-8.669a35.088,35.088,0,0,0-1.031-7.819h7.361A18.1,18.1,0,0,1,136.086,303.622Z" transform="translate(-97.797 -284.667)" fill="#fff"/>
            </g>
          </g>
        </g>
      </g>
      <g id="Group_30" data-name="Group 30" transform="translate(5.777)">
        <path id="Path_7" data-name="Path 7" d="M167.079,97.432H65.68a3.793,3.793,0,0,1-3.793-3.793h0a3.793,3.793,0,0,1,3.793-3.793h101.4a3.793,3.793,0,0,1,3.793,3.793h0A3.793,3.793,0,0,1,167.079,97.432Z" transform="translate(-61.887 -35.304)" fill="#c98bd2"/>
        <path id="Path_8" data-name="Path 8" d="M694.35,345.116H645.135a3.793,3.793,0,0,1-3.793-3.793h0a3.793,3.793,0,0,1,3.793-3.793H694.35a3.793,3.793,0,0,1,3.793,3.793h0A3.793,3.793,0,0,1,694.35,345.116Z" transform="translate(-61.887 -34.983)" fill="#1c84ee"/>
        <rect id="Rectangle_9" data-name="Rectangle 9" width="11.736" height="11.368" rx="2.861" transform="translate(589.119 342.718)" fill="#c98bd2"/>
        <rect id="Rectangle_10" data-name="Rectangle 10" width="11.736" height="11.368" rx="2.861" transform="translate(19.071 368.995)" fill="#ffb1a5"/>
        <g id="Group_22" data-name="Group 22" transform="translate(385.126 27.75)">
          <g id="Group_21" data-name="Group 21">
            <rect id="Rectangle_11" data-name="Rectangle 11" width="106.107" height="30.46" rx="3.012" fill="#ffb1a5"/>
            <g id="Group_20" data-name="Group 20" transform="translate(14.453 10.853)">
              <line id="Line_2" data-name="Line 2" x2="71.178" fill="none" stroke="#fff" stroke-width="1.18"/>
              <line id="Line_3" data-name="Line 3" x2="28.992" transform="translate(0 7.306)" fill="none" stroke="#fff" stroke-width="1.18"/>
            </g>
          </g>
          <path id="Path_9" data-name="Path 9" d="M458.571,90.068v11.871L473.5,90.068Z" transform="translate(-447.013 -63.055)" fill="#ffb1a5"/>
        </g>
        <g id="Group_29" data-name="Group 29" transform="translate(185.36)">
          <g id="Group_27" data-name="Group 27">
            <g id="Group_26" data-name="Group 26">
              <g id="Group_25" data-name="Group 25">
                <g id="Group_24" data-name="Group 24">
                  <g id="Group_23" data-name="Group 23">
                    <path id="Rectangle_12" data-name="Rectangle 12" d="M6.46,0H56.968a6.46,6.46,0,0,1,6.46,6.46v47.1a6.46,6.46,0,0,1-6.46,6.46H8.521A8.521,8.521,0,0,1,0,51.5V6.46A6.46,6.46,0,0,1,6.46,0Z" fill="#1c84ee"/>
                  </g>
                </g>
              </g>
            </g>
          </g>
          <g id="Group_28" data-name="Group 28" transform="translate(18.118 13.296)">
            <path id="Path_10" data-name="Path 10" d="M293.763,69.754l-3.612-3.612a3.164,3.164,0,0,0-2.322-1.1,3.345,3.345,0,0,0-2.322,1.031l-2.063,2.064-.387-.193a5.946,5.946,0,0,1-.645-.323,22.237,22.237,0,0,1-5.353-4.9,11.71,11.71,0,0,1-1.677-2.645c.516-.451.967-.967,1.419-1.418l.58-.581a3.145,3.145,0,0,0,0-4.772L275.575,51.5a5.856,5.856,0,0,1-.58-.645l-1.226-1.226a3.343,3.343,0,0,0-2.321-1.031,3.2,3.2,0,0,0-2.322,1.031l-2.258,2.258a5.188,5.188,0,0,0-1.483,3.16,11.732,11.732,0,0,0,.839,4.9,26.377,26.377,0,0,0,5.03,8.449,31.353,31.353,0,0,0,10.319,8.062,17.129,17.129,0,0,0,5.8,1.741h.451a5.121,5.121,0,0,0,3.87-1.677l.064-.064a9.926,9.926,0,0,1,1.161-1.161l.839-.838A3.236,3.236,0,0,0,293.763,69.754Zm-1.484,3.353-.774.774c-.451.387-.838.839-1.29,1.29a3.065,3.065,0,0,1-2.321.968h-.323a13.583,13.583,0,0,1-5.03-1.548,29.357,29.357,0,0,1-9.61-7.546,27.973,27.973,0,0,1-4.708-7.8,7.991,7.991,0,0,1-.774-4,2.718,2.718,0,0,1,.9-1.87l2.193-2.193a1.353,1.353,0,0,1,.9-.451,1.229,1.229,0,0,1,.9.451l1.161,1.161a6.036,6.036,0,0,0,.645.645l1.806,1.806a1.51,1.51,0,0,1,.452.9,1.352,1.352,0,0,1-.452.9l-.58.58-1.613,1.613-.064.064a1.412,1.412,0,0,0-.387,1.612v.065a14.884,14.884,0,0,0,2.128,3.483,23.946,23.946,0,0,0,5.869,5.353,5.372,5.372,0,0,0,.839.451,6.038,6.038,0,0,1,.645.323l.064.064a1.481,1.481,0,0,0,1.806-.322l2.257-2.258a1.066,1.066,0,0,1,1.742,0l3.611,3.612A1.221,1.221,0,0,1,292.279,73.107Z" transform="translate(-265.365 -48.6)" fill="#fff"/>
          </g>
        </g>
      </g>
    </g>
    <g id="Group_92" data-name="Group 92" transform="translate(171.975 101.813)">
      <g id="Group_91" data-name="Group 91" clip-path="url(#clip-path)">
        <g id="Group_90" data-name="Group 90" transform="translate(3.002 4.037)">
          <g id="Group_52" data-name="Group 52" transform="translate(257.266 12.71)">
            <g id="Group_32" data-name="Group 32" transform="translate(5.601 199.559)">
              <path id="Path_11" data-name="Path 11" d="M514.962,322.582l-36.5-4.86.285,3.624L447.537,325.5s-20.116,50.469-2.387,161.465h25.387l9.137-112.549h3.245l8.849,112.549h25.387C534.884,375.971,514.962,322.582,514.962,322.582Z" transform="translate(-437.845 -317.722)" fill="#8e716c"/>
              <line id="Line_4" data-name="Line 4" x2="26.486" transform="translate(30.222 56.696)" fill="none" stroke="#282828" stroke-linecap="round" stroke-linejoin="round" stroke-width="1.233"/>
            </g>
            <g id="Group_41" data-name="Group 41" transform="translate(0 101.558)">
              <g id="Group_38" data-name="Group 38" transform="translate(81.017 30.443)">
                <g id="Group_34" data-name="Group 34" transform="translate(0 14.254)">
                  <g id="Group_33" data-name="Group 33">
                    <path id="Path_12" data-name="Path 12" d="M536.279,269.341c-3.123-4.985-20.665-4.808-21.591-4.917-4.742-.556,3.041,37.18,12.906,70.166a11.075,11.075,0,0,0,14.927,7.042l.2-.083a11.09,11.09,0,0,0,6.576-12.271C544.6,304.387,539.891,275.1,536.279,269.341Z" transform="translate(-513.261 -264.418)" fill="#ffb1a5"/>
                  </g>
                  <path id="Path_13" data-name="Path 13" d="M540.46,282.986l-22.4,8.691-2.1-10.626,23.192-5.785Z" transform="translate(-513.261 -264.418)" fill="#f3978e"/>
                  <path id="Path_14" data-name="Path 14" d="M544.69,304.245s-10.61,14.249-10.1,13.594,8.321-23.027,8.321-23.027Z" transform="translate(-513.261 -264.418)" fill="#f3978e"/>
                </g>
                <g id="Group_37" data-name="Group 37" transform="translate(13.856)">
                  <path id="Path_15" data-name="Path 15" d="M559.86,285.092l-30.412,39.4a11.183,11.183,0,0,0,2.764,16.212h0a11.183,11.183,0,0,0,15.92-4.051l25.314-46.7Z" transform="translate(-527.117 -250.164)" fill="#ffb1a5"/>
                  <g id="Group_35" data-name="Group 35" transform="translate(31.922 18.303)">
                    <path id="Path_16" data-name="Path 16" d="M567.731,295.211a12.545,12.545,0,1,1,15.794-8.081A12.545,12.545,0,0,1,567.731,295.211Z" transform="translate(-559.039 -268.467)" fill="#ffb1a5"/>
                    <path id="Path_17" data-name="Path 17" d="M580.735,275.733s3.433-3.565-2.657-6.063-13.621-1.925-18.428,9.747Z" transform="translate(-559.039 -268.467)" fill="#ffb1a5"/>
                  </g>
                  <g id="Group_36" data-name="Group 36" transform="translate(39.787)">
                    <path id="Path_18" data-name="Path 18" d="M587.044,250.831l12.734,5.521a1.313,1.313,0,0,1,.576,1.876L583.6,289.518a1.6,1.6,0,0,1-1.989.764l-12.734-5.521a1.313,1.313,0,0,1-.576-1.876l16.752-31.29A1.6,1.6,0,0,1,587.044,250.831Z" transform="translate(-566.904 -250.164)" fill="#372f5f"/>
                    <path id="Path_19" data-name="Path 19" d="M585.828,250.277l12.734,5.521a1.313,1.313,0,0,1,.576,1.876l-16.752,31.29a1.6,1.6,0,0,1-1.989.764l-12.734-5.521a1.312,1.312,0,0,1-.576-1.876l16.752-31.29A1.6,1.6,0,0,1,585.828,250.277Z" transform="translate(-566.904 -250.164)" fill="#261b43"/>
                    <path id="Path_20" data-name="Path 20" d="M584.391,253.461l11.189,4.851-13.652,25.5-11.189-4.851Z" transform="translate(-566.904 -250.164)" fill="#e6e6e6"/>
                    <path id="Path_21" data-name="Path 21" d="M595.58,258.312l-24.841,20.65,13.652-25.5Z" transform="translate(-566.904 -250.164)" fill="#fff"/>
                  </g>
                  <path id="Path_22" data-name="Path 22" d="M574.421,268.631a20.316,20.316,0,0,1,5.395,2,2.881,2.881,0,0,1,1.392,3.2h0a2.861,2.861,0,0,1-2.418,2.147l-6.62.835s-3.454,5.953-7.967,6.622l4.14-10.453Z" transform="translate(-527.117 -250.164)" fill="#ffb1a5"/>
                </g>
              </g>
              <g id="Group_40" data-name="Group 40">
                <g id="Group_39" data-name="Group 39">
                  <path id="Path_23" data-name="Path 23" d="M489.877,219.721c-.731,0,46.946,6.6,54.813,60.954l-24.74,3.791L514.962,325.5H445.946l-13.7-75.82s15.291-21.914,43.682-29.961Z" transform="translate(-432.244 -219.721)" fill="#ffc359"/>
                  <line id="Line_5" data-name="Line 5" y1="23.734" x2="2.147" transform="translate(87.707 41.011)" fill="none" stroke="#282828" stroke-linecap="round" stroke-linejoin="round" stroke-width="1.233"/>
                </g>
              </g>
            </g>
            <g id="Group_51" data-name="Group 51" transform="translate(21.489)">
              <path id="Path_24" data-name="Path 24" d="M494.408,220.5V201.617H472.282v19.1a42.973,42.973,0,0,0-5.944,2.411L483.6,233.41l17.642-10.28A28.784,28.784,0,0,0,494.408,220.5Z" transform="translate(-453.733 -118.163)" fill="#ffb1a5"/>
              <path id="Path_25" data-name="Path 25" d="M472.077,203.924s3.974,10.551,14.581,9.64c9.75-.837,8.2-15.46,8.2-15.46Z" transform="translate(-453.733 -118.163)" fill="#282828"/>
              <g id="Group_44" data-name="Group 44" transform="translate(0 58.476)">
                <path id="Path_26" data-name="Path 26" d="M462.427,189.891c-3.468,3.146-11.223-8.786-7.872-12.136s5.907,1.906,5.907,1.906l1.5,3.561,1.128,4.824.269,1.264Z" transform="translate(-453.733 -176.639)" fill="#f3978e"/>
                <g id="Group_43" data-name="Group 43" transform="translate(2.442 5.17)">
                  <g id="Group_42" data-name="Group 42">
                    <path id="Path_27" data-name="Path 27" d="M456.175,181.982s2.625-1.181,4.957,2.625" transform="translate(-456.175 -181.809)" fill="none" stroke="#282828" stroke-linecap="round" stroke-linejoin="round" stroke-width="0.993"/>
                  </g>
                </g>
              </g>
              <g id="Group_47" data-name="Group 47" transform="translate(48.832 58.628)">
                <path id="Path_28" data-name="Path 28" d="M503.441,189.529c3.189,3.428,11.925-7.805,8.87-11.426s-6.048,1.4-6.048,1.4l-1.791,3.422-1.533,4.711-.374,1.236Z" transform="translate(-502.565 -176.791)" fill="#f3978e"/>
                <g id="Group_46" data-name="Group 46" transform="translate(2.613 5.119)">
                  <g id="Group_45" data-name="Group 45">
                    <path id="Path_29" data-name="Path 29" d="M510.34,182.177s-2.516-1.4-5.162,2.2" transform="translate(-505.178 -181.909)" fill="none" stroke="#282828" stroke-linecap="round" stroke-linejoin="round" stroke-width="0.993"/>
                  </g>
                </g>
              </g>
              <g id="Group_48" data-name="Group 48" transform="translate(2.611 21.671)">
                <path id="Path_30" data-name="Path 30" d="M456.344,166.374c0,15.794,12.042,23.283,26.9,23.283s26.9-7.489,26.9-23.283-12.042-26.54-26.9-26.54S456.344,150.579,456.344,166.374Z" transform="translate(-456.344 -139.834)" fill="#282828"/>
              </g>
              <path id="Path_31" data-name="Path 31" d="M460,167.472a107.979,107.979,0,0,0,2.738,24c1.339,5.814,5.106,9.877,10.43,13.147l.97.6a18.3,18.3,0,0,0,18.632.206h0c5.768-3.363,9.808-7.8,11.05-14.036a157.841,157.841,0,0,0,2.508-23.915s2.151-24.476-22.833-24S460,167.472,460,167.472Z" transform="translate(-453.733 -118.163)" fill="#ffb1a5"/>
              <g id="Group_50" data-name="Group 50" transform="translate(5.75 47.483)">
                <path id="Path_32" data-name="Path 32" d="M481.648,181.441v3.387a1.541,1.541,0,0,0,.109.569,1.51,1.51,0,0,0,1.8.832l1.554-.412" transform="translate(-459.484 -165.646)" fill="none" stroke="#282828" stroke-linecap="round" stroke-linejoin="round" stroke-width="1.232"/>
                <path id="Path_33" data-name="Path 33" d="M477.675,168.306l-12.416,2.911s.564-3.16,5.644-4.309S477.675,168.306,477.675,168.306Z" transform="translate(-459.484 -165.646)" fill="#282828"/>
                <path id="Path_34" data-name="Path 34" d="M488.7,168.306l11.99,2.911s-.545-3.16-5.45-4.309S488.7,168.306,488.7,168.306Z" transform="translate(-459.484 -165.646)" fill="#282828"/>
                <ellipse id="Ellipse_1" data-name="Ellipse 1" cx="2.094" cy="2.088" rx="2.094" ry="2.088" transform="translate(11.38 9.693)" fill="#282828"/>
                <path id="Path_35" data-name="Path 35" d="M494.9,177.428a2.094,2.094,0,1,1-2.094-2.089A2.091,2.091,0,0,1,494.9,177.428Z" transform="translate(-459.484 -165.646)" fill="#282828"/>
                <path id="Path_36" data-name="Path 36" d="M475.052,190.172H491.2S484.043,198.878,475.052,190.172Z" transform="translate(-459.484 -165.646)" fill="#fff"/>
                <g id="Group_49" data-name="Group 49">
                  <circle id="Ellipse_2" data-name="Ellipse 2" cx="8.905" cy="8.905" r="8.905" transform="translate(0 12.593) rotate(-45)" fill="none" stroke="#c98bd2" stroke-width="1.342"/>
                  <circle id="Ellipse_3" data-name="Ellipse 3" cx="8.905" cy="8.905" r="8.905" transform="translate(21.876 12.593) rotate(-45)" fill="none" stroke="#c98bd2" stroke-width="1.342"/>
                  <path id="Path_37" data-name="Path 37" d="M480.982,178.239s2.109-1.968,4.066,0" transform="translate(-459.484 -165.646)" fill="none" stroke="#c98bd2" stroke-width="1.342"/>
                  <line id="Line_6" data-name="Line 6" x1="2.805" y1="0.071" transform="translate(0.884 12.522)" fill="none" stroke="#c98bd2" stroke-width="1.342"/>
                  <line id="Line_7" data-name="Line 7" y1="0.071" x2="2.822" transform="translate(43.374 12.522)" fill="none" stroke="#c98bd2" stroke-width="1.342"/>
                </g>
              </g>
              <path id="Path_38" data-name="Path 38" d="M506.007,175.587s-9.989-13.5-7.685-27.185a19.682,19.682,0,0,1,9.345,13.361C509.6,171.394,506.007,175.587,506.007,175.587Z" transform="translate(-453.733 -118.163)" fill="#282828"/>
              <path id="Path_39" data-name="Path 39" d="M459.983,176.5s11.6-15.338,9.3-29.019a22.847,22.847,0,0,0-9.979,14.28C457.373,171.394,459.983,176.5,459.983,176.5Z" transform="translate(-453.733 -118.163)" fill="#282828"/>
              <path id="Path_40" data-name="Path 40" d="M505.169,153.79s-12.827,14.042-47.92,11.638c0,0,5.374-20.6,22.381-22.8C479.63,142.628,499.267,140.283,505.169,153.79Z" transform="translate(-453.733 -118.163)" fill="#282828"/>
              <circle id="Ellipse_4" data-name="Ellipse 4" cx="16.756" cy="16.756" r="16.756" transform="translate(31.324 33.083) rotate(-80.831)" fill="#282828"/>
            </g>
          </g>
          <g id="Group_66" data-name="Group 66" transform="translate(23.536 31.423)">
            <path id="Path_41" data-name="Path 41" d="M299.725,322.544l-31.209-4.156.285-3.625-36.5,4.861s-19.922,53.389-2.193,164.385h25.387l8.849-112.549h3.245l9.137,112.549h25.387C319.841,373.013,299.725,322.544,299.725,322.544Z" transform="translate(-198.514 -136.876)" fill="#282828"/>
            <g id="Group_61" data-name="Group 61" transform="translate(18.148)">
              <path id="Path_42" data-name="Path 42" d="M297.235,170.7a57.553,57.553,0,0,1-10.48-18.9c-3.085-8.733-13.189-5.183-13.189-5.183s-8.419-10.831-21.088-7.059-17.071,12.788-17.329,23.506-8.689,12.395-15.181,24.794c-11.46,21.89,7.835,40.328,42.959,35.213l.048-.341a36.855,36.855,0,0,0,12.872,1.2C318.043,221.426,313.971,190.389,297.235,170.7Z" transform="translate(-216.662 -136.876)" fill="#282828"/>
              <g id="Group_55" data-name="Group 55" transform="translate(65.83 36.804)">
                <path id="Path_43" data-name="Path 43" d="M283.421,186.933c3.468,3.145,11.223-8.786,7.872-12.136s-5.908,1.906-5.908,1.906l-1.5,3.561-1.128,4.824-.269,1.263Z" transform="translate(-282.492 -173.68)" fill="#f3978e"/>
                <g id="Group_54" data-name="Group 54" transform="translate(2.224 5.17)">
                  <g id="Group_53" data-name="Group 53">
                    <path id="Path_44" data-name="Path 44" d="M289.673,179.024s-2.625-1.181-4.957,2.624" transform="translate(-284.716 -178.851)" fill="none" stroke="#282828" stroke-linecap="round" stroke-linejoin="round" stroke-width="0.993"/>
                  </g>
                </g>
              </g>
              <g id="Group_58" data-name="Group 58" transform="translate(16.237 36.956)">
                <path id="Path_45" data-name="Path 45" d="M242.407,186.571c-3.189,3.427-11.925-7.8-8.87-11.427s6.048,1.4,6.048,1.4l1.791,3.422,1.533,4.711.374,1.236Z" transform="translate(-232.899 -173.832)" fill="#f3978e"/>
                <g id="Group_57" data-name="Group 57" transform="translate(2.609 5.119)">
                  <g id="Group_56" data-name="Group 56">
                    <path id="Path_46" data-name="Path 46" d="M235.508,179.219s2.516-1.4,5.162,2.2" transform="translate(-235.508 -178.951)" fill="none" stroke="#282828" stroke-linecap="round" stroke-linejoin="round" stroke-width="0.993"/>
                  </g>
                </g>
              </g>
              <g id="Group_59" data-name="Group 59" transform="translate(19.049)">
                <path id="Path_47" data-name="Path 47" d="M289.5,163.415c0,15.794-12.041,23.284-26.9,23.284s-26.9-7.49-26.9-23.284,12.042-26.539,26.9-26.539S289.5,147.621,289.5,163.415Z" transform="translate(-235.711 -136.876)" fill="#282828"/>
              </g>
              <rect id="Rectangle_13" data-name="Rectangle 13" width="22.126" height="28.651" transform="translate(34.779 61.783)" fill="#ffb1a5"/>
              <path id="Path_48" data-name="Path 48" d="M248.211,196.872s6.159,12.292,13.736,14.211a10.664,10.664,0,0,0,6.138-.355c2.852-1.011,6.469-5.262,7.083-9.967l.286-2.688S261.971,205.414,248.211,196.872Z" transform="translate(-216.662 -136.876)" fill="#282828"/>
              <path id="Path_49" data-name="Path 49" d="M285.848,164.514a107.961,107.961,0,0,1-2.738,24c-1.339,5.814-5.106,9.877-10.43,13.148l-.97.6a18.3,18.3,0,0,1-18.632.207h0c-5.769-3.363-9.808-7.8-11.051-14.036a157.915,157.915,0,0,1-2.507-23.915s-2.151-24.477,22.833-24S285.848,164.514,285.848,164.514Z" transform="translate(-216.662 -136.876)" fill="#ffb1a5"/>
              <g id="Group_60" data-name="Group 60" transform="translate(29.04 27.831)">
                <path id="Path_50" data-name="Path 50" d="M260.938,179.808v2.012a1.535,1.535,0,0,0,.109.568,1.511,1.511,0,0,0,1.8.829l1.554-.411" transform="translate(-245.702 -164.707)" fill="none" stroke="#282828" stroke-linecap="round" stroke-linejoin="round" stroke-width="1.23"/>
                <path id="Path_51" data-name="Path 51" d="M266.144,166.54l13.292,3.146s-.6-3.416-6.042-4.657S266.144,166.54,266.144,166.54Z" transform="translate(-245.702 -164.707)" fill="#282828"/>
                <path id="Path_52" data-name="Path 52" d="M259.165,166.54,245.7,169.686s.612-3.416,6.119-4.657S259.165,166.54,259.165,166.54Z" transform="translate(-245.702 -164.707)" fill="#282828"/>
                <path id="Path_53" data-name="Path 53" d="M254.342,174.79a2.094,2.094,0,1,1-2.094-2.082A2.088,2.088,0,0,1,254.342,174.79Z" transform="translate(-245.702 -164.707)" fill="#282828"/>
                <path id="Path_54" data-name="Path 54" d="M274.194,174.79a2.094,2.094,0,1,1-2.094-2.082A2.088,2.088,0,0,1,274.194,174.79Z" transform="translate(-245.702 -164.707)" fill="#282828"/>
                <path id="Path_55" data-name="Path 55" d="M252.959,186.7h18.379s-1.3,5.05-9.631,5.05A9.748,9.748,0,0,1,252.959,186.7Z" transform="translate(-245.702 -164.707)" fill="#fff"/>
              </g>
              <path id="Path_56" data-name="Path 56" d="M239.841,172.629s9.989-13.505,7.685-27.186a19.685,19.685,0,0,0-9.345,13.362C236.25,168.435,239.841,172.629,239.841,172.629Z" transform="translate(-216.662 -136.876)" fill="#282828"/>
              <path id="Path_57" data-name="Path 57" d="M285.865,172.179s-11.6-13.973-9.3-27.654a22.848,22.848,0,0,1,9.979,14.28C288.475,168.435,285.865,172.179,285.865,172.179Z" transform="translate(-216.662 -136.876)" fill="#282828"/>
              <path id="Path_58" data-name="Path 58" d="M240.679,150.832s11.462,15.406,46.555,13c0,0-4.009-21.97-21.016-24.164C266.218,139.67,246.581,137.325,240.679,150.832Z" transform="translate(-216.662 -136.876)" fill="#282828"/>
            </g>
            <g id="Group_65" data-name="Group 65" transform="translate(0 81.1)">
              <g id="Group_63" data-name="Group 63" transform="translate(0 44.976)">
                <g id="Group_62" data-name="Group 62">
                  <path id="Path_59" data-name="Path 59" d="M208.689,390.312c-.51.8,29.208-129.305,20.385-127.338-.805.18-16.258,1.615-18.554,6.284-6.658,13.537-11.433,120.068-11.433,120.068Z" transform="translate(-198.514 -262.952)" fill="#ffb1a5"/>
                  <path id="Path_60" data-name="Path 60" d="M199.087,389.326S194.3,411.55,212.4,413.98a2.544,2.544,0,0,0,2.739-1.682l.052-.151A2.542,2.542,0,0,0,213.787,409c-2.952-1.32-7.531-4.656-5.259-12.23,0,0,2.617-.321,4.062,4.562a2.1,2.1,0,0,0,2.951,1.3h0a2.1,2.1,0,0,0,1.136-2.147c-.434-3.42-2.155-11.652-8.755-13.861Z" transform="translate(-198.514 -262.952)" fill="#ffb1a5"/>
                </g>
                <path id="Path_61" data-name="Path 61" d="M205.181,300.52s17.123,24.115,17.213,23.648,5.988-33.855,5.988-33.855l-20.778-9Z" transform="translate(-198.514 -262.952)" fill="#f3978e"/>
              </g>
              <g id="Group_64" data-name="Group 64" transform="translate(4.058)">
                <path id="Path_62" data-name="Path 62" d="M252.757,222.593c.731,0-42.318.767-50.185,55.124l24.74,3.79,4.988,41.037h69.016l13.7-75.82s-9.741-16.427-38.133-24.475Z" transform="translate(-202.572 -217.976)" fill="#00857b"/>
                <path id="Path_63" data-name="Path 63" d="M231.716,229.164s6.084,8.076,31.011,8.076c24.7,0,31.01-8.5,31.01-8.5s-14.558-8.134-31.451-10.765A111.91,111.91,0,0,0,231.716,229.164Z" transform="translate(-202.572 -217.976)" fill="#ffb1a5"/>
              </g>
            </g>
          </g>
          <g id="Group_89" data-name="Group 89">
            <g id="Group_68" data-name="Group 68" transform="translate(141.437 295.914)">
              <g id="Group_67" data-name="Group 67">
                <path id="Path_64" data-name="Path 64" d="M316.414,401.367l.06,108.405H370.1l4.121-108.405Z" transform="translate(-316.414 -401.367)" fill="#005683"/>
                <path id="Path_65" data-name="Path 65" d="M432.856,401.367l-.06,108.405H379.168l-4.121-108.405Z" transform="translate(-316.414 -401.367)" fill="#005683"/>
                <rect id="Rectangle_14" data-name="Rectangle 14" width="55.449" height="37.662" transform="translate(31.703)" fill="#005683"/>
              </g>
              <line id="Line_8" data-name="Line 8" x2="38.245" transform="translate(39.448 37.662)" fill="none" stroke="#282828" stroke-linecap="round" stroke-linejoin="round" stroke-width="1.397"/>
            </g>
            <g id="Group_79" data-name="Group 79" transform="translate(0 101.901)">
              <g id="Group_70" data-name="Group 70" transform="translate(227.916 14.834)">
                <g id="Group_69" data-name="Group 69" transform="translate(27.851 84.575)">
                  <path id="Path_66" data-name="Path 66" d="M466.735,306.763c3.325,36.734-.182,63.5.788,131.092l-32.009,1.34-4.769-126.522Z" transform="translate(-430.745 -306.763)" fill="#ffb1a5"/>
                  <path id="Path_67" data-name="Path 67" d="M434.693,335.428s19.822-1.815,33.373-10.754l-.357-7.867-33.028,4.5Z" transform="translate(-430.745 -306.763)" fill="#f3978e"/>
                </g>
                <path id="Path_68" data-name="Path 68" d="M402.894,222.188s62.959,15.834,74.367,95.748c0,0-30.814,13.359-61.694,7.613l6.947-26.729Z" transform="translate(-402.894 -222.188)" fill="#c98bd2"/>
              </g>
              <g id="Group_77" data-name="Group 77">
                <g id="Group_74" data-name="Group 74">
                  <path id="Path_69" data-name="Path 69" d="M214.833,255.417l46.878,55.361-14.345,40.4s-35.63-49.537-51.64-87.825Z" transform="translate(-174.978 -207.354)" fill="#ffb1a5"/>
                  <g id="Group_73" data-name="Group 73">
                    <g id="Group_72" data-name="Group 72">
                      <g id="Group_71" data-name="Group 71">
                        <path id="Path_70" data-name="Path 70" d="M216.374,257.415s-16.461,9.3-20.648,5.936c-7.317-5.879-13.363-27.4-13.363-27.4s30.782-11.6,30.493-11.152S216.374,257.415,216.374,257.415Z" transform="translate(-174.978 -207.354)" fill="#ffb1a5"/>
                        <path id="Path_71" data-name="Path 71" d="M216.374,257.415c-.291-1.658,6.1-19.535,8.3-26.239a2.957,2.957,0,0,0-2.341-3.726h0a3.415,3.415,0,0,0-3.808,1.561l-7.721,13.2Z" transform="translate(-174.978 -207.354)" fill="#ffb1a5"/>
                        <path id="Path_72" data-name="Path 72" d="M215.81,238.089l-5.3-26.374a3.32,3.32,0,0,0-3.837-2.632h0a2.859,2.859,0,0,0-2.347,3.171l2.31,19.638Z" transform="translate(-174.978 -207.354)" fill="#ffb1a5"/>
                        <path id="Path_73" data-name="Path 73" d="M205.269,228.361l-7.2-18.833a3.3,3.3,0,0,0-4.09-2.014h0a2.847,2.847,0,0,0-1.882,3.378l5.342,21.762Z" transform="translate(-174.978 -207.354)" fill="#ffb1a5"/>
                        <path id="Path_74" data-name="Path 74" d="M197.532,233.914l-9.108-18.505a3.621,3.621,0,0,0-4.623-1.773h0a3.154,3.154,0,0,0-1.627,4.166l7.261,17.47Z" transform="translate(-174.978 -207.354)" fill="#ffb1a5"/>
                        <path id="Path_75" data-name="Path 75" d="M182.363,235.952l-7.147-11.337a2.56,2.56,0,0,1,1.249-3.42h0a2.925,2.925,0,0,1,3.572,1.039l9.4,13.038Z" transform="translate(-174.978 -207.354)" fill="#ffb1a5"/>
                      </g>
                    </g>
                    <path id="Path_76" data-name="Path 76" d="M214.37,236.107s-10.733-1.126-11.836,13.178" transform="translate(-174.978 -207.354)" fill="none" stroke="#282828" stroke-linecap="round" stroke-linejoin="round" stroke-width="1.532"/>
                  </g>
                </g>
                <g id="Group_76" data-name="Group 76" transform="translate(62.881 13.449)">
                  <g id="Group_75" data-name="Group 75" transform="translate(0 32.279)">
                    <path id="Path_77" data-name="Path 77" d="M237.859,332.282s8.817,30.513,26.386,26.456S309.2,317.156,309.2,317.156l-6.129-64.074-49.313,60.693Z" transform="translate(-237.859 -253.082)" fill="#ffb1a5"/>
                    <path id="Path_78" data-name="Path 78" d="M269.051,294.922S285.7,320.035,299.9,328.89l9.295-11.734-35.861-27.741Z" transform="translate(-237.859 -253.082)" fill="#f3978e"/>
                  </g>
                  <path id="Path_79" data-name="Path 79" d="M341.893,220.8s-48.88,11.017-74.928,67.826c0,0,15.738,23.714,40.969,34.254l16.892-20.694Z" transform="translate(-237.859 -220.803)" fill="#c98bd2"/>
                </g>
              </g>
              <g id="Group_78" data-name="Group 78" transform="translate(135.066 9.029)">
                <path id="Path_80" data-name="Path 80" d="M341.893,220.627a122.411,122.411,0,0,0-31.1,22.783l3.767,166.06H434.889l-.39-165.2s-15.167-14.843-31.6-22.079C388.932,216.042,355.467,213.665,341.893,220.627Z" transform="translate(-310.044 -216.383)" fill="#c98bd2"/>
                <path id="Rectangle_15" data-name="Rectangle 15" d="M0,0H33.473a0,0,0,0,1,0,0V16.737A16.736,16.736,0,0,1,16.736,33.473h0A16.736,16.736,0,0,1,0,16.737V0A0,0,0,0,1,0,0Z" transform="translate(72.05 51.688)" fill="none" stroke="#282828" stroke-linecap="round" stroke-linejoin="round" stroke-width="1.397"/>
                <line id="Line_9" data-name="Line 9" y1="54.323" x2="1.561" transform="translate(124.649 55.459)" fill="none" stroke="#282828" stroke-linecap="round" stroke-linejoin="round" stroke-width="1.397"/>
                <line id="Line_10" data-name="Line 10" x1="2.6" y1="47.089" transform="translate(0 53.64)" fill="none" stroke="#282828" stroke-linecap="round" stroke-linejoin="round" stroke-width="1.397"/>
              </g>
            </g>
            <g id="Group_88" data-name="Group 88" transform="translate(157.419)">
              <path id="Path_81" data-name="Path 81" d="M343.3,159.974l-5.016-24.815c-.282-2.021-1.066-5.14-.106-8.071,1.589-4.849,7.428-14.161,17.407-9.9l2.158,9.824s-10.364,2.092-14.522,15.65Z" transform="translate(-332.397 -105.453)" fill="#282828"/>
              <path id="Path_82" data-name="Path 82" d="M354.853,122.313c-.181,3.26-3.059,17.526-13.177,22.724C341.676,145.037,332.814,126.031,354.853,122.313Z" transform="translate(-332.397 -105.453)" fill="#282828"/>
              <path id="Path_83" data-name="Path 83" d="M390.346,216.058h0V173.921H351.5v42.137l-11.563,5.271s2.712,17.464,31.393,17.851,31.562-16.992,31.562-16.992Z" transform="translate(-332.397 -105.453)" fill="#ffb1a5"/>
              <path id="Path_84" data-name="Path 84" d="M355.588,117.191s7.129-18.807,29.112-8.809c13.3,6.051,17.032,14.165,18.618,19.913a23.127,23.127,0,0,1,.593,6.706l-5.317,24.973-20.76-34.552-20.088,1.593Z" transform="translate(-332.397 -105.453)" fill="#282828"/>
              <g id="Group_82" data-name="Group 82" transform="translate(63.891 51.837)">
                <path id="Path_85" data-name="Path 85" d="M398.594,159.974s2.619-4.165,8.02-2.117,2.958,15.167-5.144,16.838a6.408,6.408,0,0,1-5.182-1.355S398.28,163.651,398.594,159.974Z" transform="translate(-396.288 -157.291)" fill="#f3978e"/>
                <g id="Group_81" data-name="Group 81" transform="translate(1.519 5.047)">
                  <g id="Group_80" data-name="Group 80">
                    <path id="Path_86" data-name="Path 86" d="M405.543,162.485s-4.525-1.51-7.736,5.153" transform="translate(-397.807 -162.338)" fill="none" stroke="#282828" stroke-linecap="round" stroke-linejoin="round" stroke-width="1.397"/>
                  </g>
                </g>
              </g>
              <g id="Group_85" data-name="Group 85" transform="translate(0 51.837)">
                <path id="Path_87" data-name="Path 87" d="M343.3,159.974s-2.619-4.165-8.02-2.117-2.958,15.167,5.144,16.838a6.409,6.409,0,0,0,5.182-1.355S343.616,163.651,343.3,159.974Z" transform="translate(-332.397 -157.291)" fill="#f3978e"/>
                <g id="Group_84" data-name="Group 84" transform="translate(3.957 5.047)">
                  <g id="Group_83" data-name="Group 83">
                    <path id="Path_88" data-name="Path 88" d="M336.354,162.485s4.525-1.51,7.736,5.153" transform="translate(-336.354 -162.338)" fill="none" stroke="#282828" stroke-linecap="round" stroke-linejoin="round" stroke-width="1.397"/>
                  </g>
                </g>
              </g>
              <path id="Path_89" data-name="Path 89" d="M399.135,147.526c0,7.908-.774,24.452-5.635,34.272-4.565,9.22-12.114,14.182-22.012,14.477s-17.27-3.519-23.179-15.485-5.627-33.117-5.627-33.117,0-28.249,27.92-28.249C400.008,119.424,399.135,147.526,399.135,147.526Z" transform="translate(-332.397 -105.453)" fill="#ffb1a5"/>
              <path id="Path_90" data-name="Path 90" d="M351.794,186.688s3.253,16.5,17.617,18.4c16.532,2.183,20.935-17.982,20.935-17.982s-7.305,9.154-18.858,9.168A25.277,25.277,0,0,1,351.794,186.688Z" transform="translate(-332.397 -105.453)" fill="#282828"/>
              <g id="Group_87" data-name="Group 87" transform="translate(10.627 35.462)">
                <path id="Path_91" data-name="Path 91" d="M368.917,159.254v6.538a2.138,2.138,0,0,0,.153.8,2.1,2.1,0,0,0,2.509,1.164l2.168-.577" transform="translate(-343.024 -140.916)" fill="none" stroke="#282828" stroke-linecap="round" stroke-linejoin="round" stroke-width="1.397"/>
                <path id="Path_92" data-name="Path 92" d="M360.672,156.132a2.542,2.542,0,1,1-2.542-2.542A2.542,2.542,0,0,1,360.672,156.132Z" transform="translate(-343.024 -140.916)" fill="#282828"/>
                <path id="Path_93" data-name="Path 93" d="M384.5,156.132a2.542,2.542,0,1,1-2.541-2.542A2.541,2.541,0,0,1,384.5,156.132Z" transform="translate(-343.024 -140.916)" fill="#282828"/>
                <path id="Path_94" data-name="Path 94" d="M375.454,143.488l17.089,4.414s-.777-4.793-7.768-6.535S375.454,143.488,375.454,143.488Z" transform="translate(-343.024 -140.916)" fill="#282828"/>
                <path id="Path_95" data-name="Path 95" d="M364.835,143.488,347.746,147.9s.777-4.793,7.768-6.535S364.835,143.488,364.835,143.488Z" transform="translate(-343.024 -140.916)" fill="#282828"/>
                <path id="Path_96" data-name="Path 96" d="M361.436,172.379s2.521,1.932,9.151,1.932a23.172,23.172,0,0,0,9.794-1.932" transform="translate(-343.024 -140.916)" fill="none" stroke="#282828" stroke-linecap="round" stroke-linejoin="round" stroke-width="1.397"/>
                <g id="Group_86" data-name="Group 86" transform="translate(0 5.159)">
                  <circle id="Ellipse_5" data-name="Ellipse 5" cx="10.8" cy="10.8" r="10.8" transform="translate(3.621)" fill="none" stroke="#fff" stroke-width="1.951"/>
                  <circle id="Ellipse_6" data-name="Ellipse 6" cx="10.8" cy="10.8" r="10.8" transform="translate(30.154)" fill="none" stroke="#fff" stroke-width="1.951"/>
                  <path id="Path_97" data-name="Path 97" d="M368.246,156.875s2.558-2.388,4.932,0" transform="translate(-343.024 -146.074)" fill="none" stroke="#fff" stroke-width="1.951"/>
                  <line id="Line_11" data-name="Line 11" x1="3.621" y1="0.092" transform="translate(0 10.709)" fill="none" stroke="#fff" stroke-width="1.951"/>
                  <line id="Line_12" data-name="Line 12" y1="0.066" x2="4.043" transform="translate(51.754 10.735)" fill="none" stroke="#fff" stroke-width="1.951"/>
                </g>
              </g>
              <path id="Path_98" data-name="Path 98" d="M351.794,122.958s5.187,14.735,28.591,14.283c15.9-.307,19.7,11.2,19.7,11.2s-2.768-25.727-3.5-25.484-24.2-6.263-24.2-6.263Z" transform="translate(-332.397 -105.453)" fill="#282828"/>
            </g>
          </g>
        </g>
      </g>
    </g>
  </g>
</svg>
