<svg width="15" height="14" viewBox="0 0 15 14" fill="none" xmlns="http://www.w3.org/2000/svg">
<path d="M13.2897 0C12.7922 0 12.3923 0.402577 12.3923 0.898286V2.99278C11.3788 1.76641 10.2118 0 7 0C3.14088 0 0 3.13998 0 7C0 10.86 3.14088 14 7 14C10.0309 14 12.7036 12.0642 13.6524 9.1823C13.8094 8.70258 13.5486 8.18647 13.0689 8.02864C12.5892 7.86902 12.0713 8.12972 11.9135 8.60947C11.2138 10.7368 9.23724 12.1698 6.99908 12.1698C4.14731 12.1698 1.82757 9.85093 1.82757 6.99738C1.82757 4.14382 4.14734 1.83644 6.99911 1.83644C9.01824 1.83644 10.14 3.09297 11.0551 4.41069H8.79744C8.30086 4.41069 7.89915 4.81327 7.89915 5.30897C7.89915 5.80555 8.30084 6.20726 8.79744 6.20726H13.2888C13.7854 6.20991 14.188 5.80733 14.188 5.31165V0.897394C14.1889 0.402577 13.7863 0 13.2897 0Z" fill="#1C84EE"/>
</svg>
