<svg width="60" height="60" viewBox="0 0 60 60" fill="none" xmlns="http://www.w3.org/2000/svg">
<circle cx="30" cy="30" r="30" fill="#46BF3C"/>
<path d="M42.5928 34.6916C40.7561 34.6916 38.9527 34.4043 37.2437 33.8395C36.4062 33.5539 35.3768 33.8159 34.8657 34.3409L31.4925 36.8873C27.5805 34.7991 25.1709 32.3902 23.1112 28.5076L25.5827 25.2223C26.2248 24.581 26.4551 23.6443 26.1791 22.7654C25.612 21.0474 25.3238 19.2448 25.3238 17.4073C25.3239 16.0799 24.244 15 22.9166 15H17.4073C16.0799 15 15 16.0799 15 17.4073C15 32.6221 27.378 45 42.5928 45C43.9202 45 45.0001 43.9201 45.0001 42.5927V37.0988C45 35.7715 43.9201 34.6916 42.5928 34.6916Z" fill="white"/>
</svg>
