<svg width="60" height="60" viewBox="0 0 60 60" fill="none" xmlns="http://www.w3.org/2000/svg">
<circle cx="30" cy="30" r="30" fill="#ED9C22"/>
<path d="M29.9997 9C18.402 9 9 18.4023 9 29.9997C9 41.597 18.402 51 29.9997 51C41.5973 51 51 41.597 51 29.9997C51 18.4023 41.5973 9 29.9997 9ZM39.0784 33.9938H30.1754C30.1453 33.9938 30.1173 33.9865 30.0874 33.9854C30.0576 33.9868 30.0298 33.9938 29.9995 33.9938C29.1974 33.9938 28.5471 33.3435 28.5471 32.5414V17.715C28.5471 16.9129 29.1974 16.2626 29.9995 16.2626C30.8016 16.2626 31.4519 16.9129 31.4519 17.715V31.089H39.0778C39.8799 31.089 40.5302 31.7393 40.5302 32.5414C40.5302 33.3435 39.8805 33.9938 39.0784 33.9938Z" fill="white"/>
</svg>
