<svg width="60" height="60" viewBox="0 0 60 60" fill="none" xmlns="http://www.w3.org/2000/svg">
<circle cx="30" cy="30" r="30" fill="#C7251B"/>
<path d="M30 9C18.45 9 9 18.45 9 30C9 41.55 18.45 51 30 51C41.55 51 51 41.55 51 30C51 18.45 41.55 9 30 9ZM13.2 30C13.2 20.76 20.76 13.2 30 13.2C33.78 13.2 37.35 14.46 40.29 16.77L16.77 40.29C14.46 37.35 13.2 33.78 13.2 30ZM30 46.8C26.22 46.8 22.65 45.54 19.71 43.23L43.23 19.71C45.54 22.65 46.8 26.22 46.8 30C46.8 39.24 39.24 46.8 30 46.8Z" fill="white"/>
</svg>
