<svg width="60" height="60" viewBox="0 0 60 60" fill="none" xmlns="http://www.w3.org/2000/svg">
<circle cx="30" cy="30" r="30" fill="#297BCE"/>
<path d="M39.5928 37.6916C37.7561 37.6916 35.9527 37.4043 34.2437 36.8395C33.4062 36.5539 32.3768 36.8159 31.8657 37.3409L28.4925 39.8873C24.5805 37.7991 22.1709 35.3902 20.1112 31.5076L22.5827 28.2223C23.2248 27.581 23.4551 26.6443 23.1791 25.7654C22.612 24.0474 22.3238 22.2448 22.3238 20.4073C22.3239 19.0799 21.244 18 19.9166 18H14.4073C13.0799 18 12 19.0799 12 20.4073C12 35.6221 24.378 48 39.5928 48C40.9202 48 42.0001 46.9201 42.0001 45.5927V40.0988C42 38.7715 40.9201 37.6916 39.5928 37.6916Z" fill="white"/>
<circle cx="36" cy="21" r="9" fill="white"/>
<path d="M41.0458 16.7201L36.755 24.335C36.5034 24.7858 35.9538 24.9586 35.4873 24.7002L31.5742 22.6056C31.1078 22.3472 30.9249 21.7574 31.147 21.289C31.3922 20.8144 31.965 20.6354 32.4314 20.8937L35.5362 22.5661L39.3612 15.7148C39.6296 15.234 40.2088 15.0789 40.6816 15.361C41.1545 15.6432 41.3142 16.2393 41.0458 16.7201Z" fill="#297BCE"/>
</svg>
