<svg width="60" height="60" viewBox="0 0 60 60" fill="none" xmlns="http://www.w3.org/2000/svg">
<circle cx="30" cy="30" r="30" fill="#C7251B"/>
<path d="M29.6 24.3955C28.9928 24.3955 28.5 24.9038 28.5 25.5302C28.5 26.1565 28.9928 26.6649 29.6 26.6649C32.0266 26.6649 34 28.7005 34 31.2037C34 31.83 34.4928 32.3383 35.1 32.3383C35.7072 32.3383 36.2 31.83 36.2 31.2037C36.2 27.4501 33.2388 24.3955 29.6 24.3955Z" fill="white"/>
<path d="M29.6 19.856C28.9928 19.856 28.5 20.3643 28.5 20.9906C28.5 21.617 28.9928 22.1253 29.6 22.1253C34.4532 22.1253 38.4 26.1966 38.4 31.2029C38.4 31.8292 38.8928 32.3376 39.5 32.3376C40.1072 32.3376 40.6 31.8292 40.6 31.2029C40.6 24.9462 35.6654 19.856 29.6 19.856Z" fill="white"/>
<path d="M29.6 15.3179C28.9928 15.3179 28.5 15.8262 28.5 16.4526C28.5 17.0789 28.9928 17.5873 29.6 17.5873C36.8798 17.5873 42.8 23.6942 42.8 31.2035C42.8 31.8299 43.2928 32.3382 43.9 32.3382C44.5072 32.3382 45 31.8299 45 31.2035C45 22.4437 38.0898 15.3179 29.6 15.3179Z" fill="white"/>
<path d="M43.8214 38.5714C40.3989 38.5714 37.1389 37.8266 34.1336 36.3581C33.8507 36.2166 33.5254 36.2001 33.2308 36.3039C32.9338 36.4076 32.691 36.6244 32.5543 36.9049L30.7016 40.74C25.9071 38.0646 21.9377 34.0976 19.2647 29.3031L23.0974 27.4457C23.3803 27.309 23.5948 27.0662 23.6985 26.7692C23.7999 26.4746 23.781 26.1493 23.6419 25.8664C22.1734 22.8611 21.4286 19.6011 21.4286 16.1786C21.4286 15.528 20.9006 15 20.25 15H13.1786C12.528 15 12 15.528 12 16.1786C12 33.7251 26.2749 48 43.8214 48C44.472 48 45 47.472 45 46.8214V39.75C45 39.0994 44.472 38.5714 43.8214 38.5714Z" fill="white"/>
</svg>
