<svg width="60" height="60" viewBox="0 0 60 60" fill="none" xmlns="http://www.w3.org/2000/svg">
<path d="M29.5992 0.00272641C13.0319 0.224465 -0.217725 13.8359 0.00271115 30.4037C0.224452 46.9643 13.8348 60.2177 30.4014 59.9973C46.9655 59.7743 60.2177 46.1628 59.9973 29.5963C59.7756 13.0344 46.1646 -0.21836 29.5992 0.00272641ZM29.5105 48.2608L29.3449 48.2582C26.7936 48.1826 24.9949 46.303 25.0672 43.7895C25.1383 41.3191 26.9807 39.5256 29.4479 39.5256L29.596 39.5282C32.2184 39.6058 33.9969 41.4665 33.9232 44.0523C33.8501 46.5299 32.0364 48.2608 29.5105 48.2608ZM40.2421 26.9615C39.6421 27.8139 38.3228 28.8724 36.6604 30.1676L34.8297 31.4315C33.8247 32.2128 33.2182 32.9478 32.9906 33.6711C32.8112 34.2404 32.7232 34.3911 32.7075 35.5493L32.7049 35.8435H25.7149L25.7351 35.2519C25.8205 32.8207 25.8805 31.3904 26.8881 30.2087C28.469 28.3526 31.9562 26.1072 32.1043 26.012C32.6038 25.6357 33.0251 25.2072 33.3388 24.7494C34.0725 23.7379 34.3973 22.9416 34.3973 22.159C34.3973 21.0731 34.0751 20.0687 33.438 19.1746C32.8256 18.3118 31.6621 17.8748 29.9795 17.8748C28.3105 17.8748 27.1679 18.4044 26.4844 19.4909C25.7814 20.6081 25.4259 21.7813 25.4259 22.98V23.2781H18.2187L18.2318 22.967C18.4176 18.5524 19.9933 15.3738 22.9131 13.519C24.7477 12.3379 27.0303 11.7392 29.6938 11.7392C33.1803 11.7392 36.1236 12.5864 38.4408 14.2572C40.7887 15.9503 41.9795 18.4859 41.9795 21.7937C41.9795 23.6439 41.3952 25.382 40.2421 26.9615Z" fill="#46BF3C"/>
</svg>
