<svg width="60" height="60" viewBox="0 0 60 60" fill="none" xmlns="http://www.w3.org/2000/svg">
<circle cx="30" cy="30" r="30" fill="#1C84EE"/>
<path d="M41.096 31.0889H38.6831C38.929 31.7622 39.0634 32.4889 39.0634 33.2463V42.3656C39.0634 42.6814 39.0085 42.9845 38.9085 43.2664H42.8975C44.3876 43.2664 45.5998 42.0541 45.5998 40.5641V35.5927C45.5999 33.1093 43.5794 31.0889 41.096 31.0889Z" fill="white"/>
<path d="M20.9364 33.2463C20.9364 32.4888 21.0707 31.7622 21.3167 31.0889H18.9038C16.4204 31.0889 14.3999 33.1093 14.3999 35.5928V40.5641C14.3999 42.0542 15.6121 43.2665 17.1022 43.2665H21.0913C20.9913 42.9844 20.9364 42.6814 20.9364 42.3656V33.2463Z" fill="white"/>
<path d="M32.7581 28.7427H27.2419C24.7585 28.7427 22.738 30.7631 22.738 33.2466V42.3659C22.738 42.8633 23.1413 43.2667 23.6388 43.2667H36.3613C36.8587 43.2667 37.262 42.8634 37.262 42.3659V33.2466C37.262 30.7631 35.2416 28.7427 32.7581 28.7427Z" fill="white"/>
<path d="M30 16.8003C27.0133 16.8003 24.5835 19.2301 24.5835 22.2169C24.5835 24.2427 25.7016 26.0121 27.3529 26.941C28.1362 27.3816 29.0391 27.6334 30 27.6334C30.9609 27.6334 31.8638 27.3816 32.6471 26.941C34.2984 26.0121 35.4165 24.2427 35.4165 22.2169C35.4165 19.2302 32.9867 16.8003 30 16.8003Z" fill="white"/>
<path d="M20.4886 21.8486C18.2549 21.8486 16.4377 23.6658 16.4377 25.8995C16.4377 28.1331 18.2549 29.9503 20.4886 29.9503C21.0552 29.9503 21.5947 29.8329 22.0848 29.622C22.9322 29.2571 23.6309 28.6113 24.0633 27.8024C24.3668 27.2346 24.5394 26.5869 24.5394 25.8995C24.5394 23.6659 22.7222 21.8486 20.4886 21.8486Z" fill="white"/>
<path d="M39.5113 21.8486C37.2776 21.8486 35.4604 23.6658 35.4604 25.8995C35.4604 26.587 35.6331 27.2347 35.9366 27.8024C36.3689 28.6114 37.0676 29.2572 37.915 29.622C38.4051 29.8329 38.9447 29.9503 39.5113 29.9503C41.7449 29.9503 43.5621 28.1331 43.5621 25.8995C43.5621 23.6658 41.7449 21.8486 39.5113 21.8486Z" fill="white"/>
</svg>
